<svg version="1.1" id="Layer_1" xmlns="http://www.w3.org/2000/svg" xmlns:xlink="http://www.w3.org/1999/xlink" x="0px" y="0px"
	 width="100%" viewBox="0 0 418 319" enable-background="new 0 0 418 319" xml:space="preserve">
<path fill="#FEFEFF" opacity="1.000000" stroke="none" 
	d="
M300.000000,320.000000 
	C200.000015,320.000000 100.500038,320.000000 1.000040,320.000000 
	C1.000027,213.666702 1.000027,107.333405 1.000013,1.000083 
	C140.333267,1.000055 279.666534,1.000055 418.999878,1.000028 
	C418.999908,107.333252 418.999908,213.666504 418.999939,319.999878 
	C379.500000,320.000000 340.000000,320.000000 300.000000,320.000000 
M203.487335,192.319824 
	C203.379272,192.675720 203.271210,193.031631 202.998306,194.053650 
	C201.386002,197.398315 199.773697,200.742966 197.496002,204.121460 
	C197.334686,205.081985 197.173370,206.042496 196.951904,207.693924 
	C196.580795,208.779892 196.209686,209.865875 195.225647,211.066925 
	C195.129761,212.039124 195.033859,213.011307 194.922867,214.797546 
	C194.407822,217.492050 193.892792,220.186569 192.893860,223.055252 
	C192.949860,223.706497 193.005875,224.357742 193.119949,225.897598 
	C192.960648,228.259476 192.801346,230.621338 191.954788,233.002594 
	C190.626862,233.337616 189.298920,233.672638 187.957703,233.094620 
	C187.880142,230.023483 187.802582,226.952347 187.817520,223.027863 
	C187.886642,221.019699 187.955765,219.011520 188.513885,216.633209 
	C188.584427,216.046188 188.654968,215.459152 188.825134,214.102432 
	C188.878799,213.068527 188.932480,212.034622 189.483459,210.638321 
	C189.571442,210.051636 189.659424,209.464966 189.861832,208.075882 
	C190.587326,205.047989 191.312805,202.020111 192.493301,198.715607 
	C192.628983,198.393784 192.764648,198.071960 192.876892,196.956238 
	C195.312149,189.004425 197.747406,181.052612 200.657288,172.631042 
	C201.439606,170.753662 202.221924,168.876282 203.099472,166.625290 
	C203.099472,166.625290 203.102371,166.239746 203.584808,165.827805 
	C203.754318,165.234802 203.923813,164.641800 203.997437,164.037949 
	C203.997437,164.037949 204.089264,164.071243 204.699661,163.768799 
	C209.161179,156.532913 213.622696,149.297012 218.040085,141.988754 
	C218.040085,141.988754 218.062393,142.069061 218.652161,141.779953 
	C219.464050,140.541107 220.275940,139.302261 221.044281,137.988495 
	C221.044281,137.988495 221.064758,138.071472 221.666855,137.791550 
	C222.817566,136.236801 223.968277,134.682053 225.003891,133.005463 
	C225.003891,133.005463 225.128235,133.117676 225.810181,133.089417 
	C226.912582,131.768326 228.014969,130.447235 229.007874,129.000992 
	C229.007874,129.000992 229.126907,129.117722 229.816711,129.085327 
	C232.506454,126.959389 235.207748,124.847847 237.882767,122.703514 
	C240.626801,120.503883 243.345123,118.272194 246.023956,116.001701 
	C246.023956,116.001701 246.026215,116.074890 246.632919,116.024445 
	C247.104218,115.694565 247.575516,115.364685 248.007401,114.996277 
	C248.007401,114.996277 248.021622,115.049377 248.494995,114.859619 
	C248.687515,114.588684 248.880051,114.317757 248.998779,114.024574 
	C248.998779,114.024574 249.040207,114.089584 249.650879,114.061760 
	C250.122009,113.728119 250.593140,113.394478 250.995636,113.059593 
	C250.995636,113.059593 251.061768,113.084740 251.749725,113.019859 
	C253.535965,112.070366 255.322189,111.120872 257.665863,110.062614 
	C258.128052,109.767883 258.590271,109.473152 259.811249,109.100204 
	C275.329956,103.040390 291.153320,98.803024 308.051575,98.666931 
	C314.360291,98.616119 320.943359,96.970833 326.869354,94.677773 
	C333.327240,92.178894 340.554016,90.102348 344.552307,82.917328 
	C344.818817,82.789085 344.998962,82.584709 345.547577,81.991066 
	C345.722565,81.677612 345.897522,81.364151 346.036530,81.094215 
	C346.036530,81.094215 346.092468,81.101883 346.761169,81.014145 
	C348.468506,79.011406 350.175842,77.008675 352.247894,74.420609 
	C353.119781,72.884056 353.991669,71.347504 355.011719,69.549850 
	C337.308044,60.307777 319.349426,52.872688 299.331360,48.703259 
	C294.349396,47.500912 289.408051,46.083324 284.378418,45.133312 
	C262.066193,40.918911 239.509735,41.575405 216.977219,42.071178 
	C212.058899,42.179398 207.801880,43.452007 204.949432,48.366566 
	C198.872879,58.835991 192.294708,69.014282 185.118576,79.261078 
	C176.079956,80.843353 167.041351,82.425636 157.211182,83.923515 
	C152.735367,85.260780 148.259567,86.598045 143.353439,87.927773 
	C143.353439,87.927773 142.966431,88.116081 142.259033,87.945854 
	C141.453476,88.261864 140.647934,88.577881 139.942703,88.915573 
	C139.942703,88.915573 139.894516,88.824936 139.082687,88.915108 
	C133.680420,90.535339 128.278152,92.155571 122.233246,93.817162 
	C121.815994,93.901634 121.398735,93.986107 120.352852,94.066261 
	C120.056717,94.351242 119.760574,94.636230 119.203934,94.801559 
	C119.203934,94.801559 119.001091,95.004128 118.252304,95.038040 
	C114.501915,96.729233 110.751526,98.420418 106.163368,99.920303 
	C102.372833,99.415634 101.577492,101.617958 101.802376,104.744164 
	C102.705559,117.299858 103.591743,129.856812 104.521942,142.410507 
	C104.774925,145.824738 105.160011,149.229187 104.874405,152.906174 
	C98.265266,157.935989 91.419052,162.688507 85.116371,168.076767 
	C79.284439,173.062561 74.034340,178.728928 68.264076,184.257187 
	C68.264076,184.257187 68.099396,184.519211 67.585983,184.870041 
	C63.137688,189.282639 58.739162,193.747070 54.220161,198.086029 
	C51.945805,200.269806 51.470806,202.246872 53.639309,204.870514 
	C60.165688,212.766739 66.551910,220.778793 73.284599,229.337875 
	C73.903549,230.227341 74.522499,231.116806 75.145889,232.680832 
	C78.496468,236.086105 81.754379,239.590256 85.237297,242.854340 
	C86.941116,244.451080 89.063454,245.601242 91.443588,247.345306 
	C92.213326,247.926651 92.983055,248.508011 94.006538,249.727814 
	C107.109123,262.626709 122.449699,272.186676 139.530426,280.379272 
	C145.078140,282.745605 150.625870,285.111938 156.705399,287.968109 
	C172.489410,292.071381 188.273407,296.174652 204.783768,300.651886 
	C205.864731,300.704987 206.945709,300.758087 208.622940,301.167664 
	C209.768539,301.209686 210.914154,301.251678 212.839371,301.622650 
	C214.243896,301.677124 215.648422,301.731598 217.758896,302.124634 
	C220.816193,302.241272 223.873474,302.357910 227.831421,302.718842 
	C231.547531,302.712097 235.263657,302.705383 239.735229,302.949768 
	C244.181320,302.750916 248.627396,302.552032 253.959763,302.634644 
	C287.988373,302.675140 322.016968,302.715759 356.045563,302.755249 
	C356.709534,302.756012 357.386871,302.826233 358.035156,302.722046 
	C361.121735,302.226074 361.055206,300.727051 359.804993,298.582062 
	C359.182922,297.437286 358.560883,296.292511 358.054993,294.573883 
	C358.029816,294.380341 358.004669,294.186798 358.415253,293.556274 
	C358.750397,282.828918 353.157227,274.926727 345.864807,267.105316 
	C338.186401,257.515533 327.689514,253.339630 315.087402,251.179764 
	C295.387390,251.138977 275.687347,251.098190 255.449417,250.698349 
	C253.957687,250.747711 252.465942,250.797058 250.302429,250.633728 
	C249.147491,250.603653 247.992538,250.573578 246.369064,249.999924 
	C239.032501,247.731979 234.089920,242.740173 230.628357,235.468216 
	C230.155457,233.996323 229.682556,232.524445 229.410507,230.310486 
	C229.356262,228.191132 229.302017,226.071777 229.670410,223.268677 
	C231.210709,219.705002 232.750992,216.141327 234.251877,212.781860 
	C234.251877,212.781860 234.458069,212.809097 235.070007,212.482162 
	C240.449768,209.353378 245.490875,205.010986 251.291977,203.392075 
	C259.173157,201.192734 267.611481,200.731613 275.854889,200.154037 
	C286.081268,199.437515 295.843475,197.654800 304.362274,191.410126 
	C304.362274,191.410126 304.464539,191.527954 305.106140,191.357101 
	C309.404266,187.238647 313.702393,183.120193 318.590759,178.680832 
	C325.415497,169.673935 328.847290,159.623215 328.549225,147.930023 
	C314.999573,147.930023 302.028076,148.305374 289.086548,147.842422 
	C269.468506,147.140640 251.083405,150.923615 233.489182,161.049408 
	C233.043716,161.457245 232.598236,161.865082 232.101196,162.135666 
	C232.101196,162.135666 232.216248,162.226517 231.439484,162.086655 
	C228.931946,162.203598 226.863266,162.825333 226.861053,166.422134 
	C226.861053,166.422134 226.773041,166.889114 226.144424,167.081924 
	C224.353470,168.361206 222.562515,169.640488 220.115509,171.026535 
	C218.399017,172.990173 216.682510,174.953812 214.765991,177.493896 
	C213.933029,178.370148 213.100082,179.246399 211.538422,180.134094 
	C211.022324,181.082886 210.506226,182.031662 209.921967,183.645065 
	C208.968826,184.772415 208.015671,185.899750 206.367264,187.117920 
	C205.909042,188.075134 205.450821,189.032349 205.000000,190.000000 
	C205.000000,190.000000 204.988480,189.994659 204.498016,190.315994 
	C204.320053,190.857880 204.142090,191.399765 204.005386,191.984558 
	C204.005386,191.984558 203.946121,191.978851 203.487335,192.319824 
z"/>
<path fill="#C9DBE9" opacity="1.000000" stroke="none" 
	d="
M185.922104,79.311890 
	C192.294708,69.014282 198.872879,58.835991 204.949432,48.366566 
	C207.801880,43.452007 212.058899,42.179398 216.977219,42.071178 
	C239.509735,41.575405 262.066193,40.918911 284.378418,45.133312 
	C289.408051,46.083324 294.349396,47.500912 299.629822,49.231884 
	C299.004883,50.533855 298.179443,51.491459 297.138947,52.044506 
	C294.477020,53.459370 291.719360,54.694138 288.639832,56.039200 
	C223.302216,87.445740 184.931580,137.066315 181.633820,210.960388 
	C174.756638,210.638824 173.371674,205.468506 171.681305,200.331024 
	C170.995193,202.489746 171.357147,204.381256 170.872681,206.022980 
	C170.528275,207.190094 169.043076,208.020569 167.911591,208.760651 
	C167.528931,208.001144 167.301712,207.482285 167.100708,206.540619 
	C166.043350,197.082260 164.959808,188.046677 163.941956,178.673553 
	C163.943237,177.885437 163.878830,177.434875 163.871414,176.523926 
	C163.897903,171.714218 163.867416,167.364899 163.931442,162.594208 
	C164.339691,156.786362 164.653427,151.399872 164.996841,145.643768 
	C165.053268,144.533218 165.080032,143.792267 165.373688,142.900330 
	C165.752777,142.166718 165.864975,141.584122 166.078461,140.616272 
	C166.159821,139.173660 166.139893,138.116287 166.406769,136.901321 
	C167.729965,131.832626 168.766327,126.921547 169.941650,121.687164 
	C170.145660,120.900917 170.210709,120.437965 170.454987,119.671211 
	C175.730179,106.015572 180.826141,92.663727 185.922104,79.311890 
z"/>
<path fill="#486E7C" opacity="1.000000" stroke="none" 
	d="
M220.771545,170.919769 
	C222.562515,169.640488 224.353470,168.361206 226.795776,167.129486 
	C229.042862,166.871582 231.233856,167.126053 232.135468,166.167603 
	C237.105728,160.883987 242.867645,158.040222 250.235245,158.911194 
	C250.625534,158.957336 251.070267,158.542969 251.742813,158.222244 
	C251.040268,157.463974 250.484970,156.864624 248.720596,154.960312 
	C259.859161,153.257812 269.829132,150.940933 279.896332,150.385056 
	C294.226105,149.593796 308.627747,150.039841 322.997314,150.145111 
	C324.222595,150.154083 326.589935,151.872009 326.481171,152.291077 
	C325.226410,157.125671 323.758209,161.923172 322.014618,166.606903 
	C320.569794,170.488083 318.682495,174.204544 316.721069,178.188477 
	C313.789337,181.877670 311.452484,185.861633 306.212799,185.072601 
	C305.589996,187.372284 305.027252,189.450119 304.464539,191.527954 
	C304.464539,191.527954 304.362274,191.410126 304.030945,191.325714 
	C300.877747,191.816055 297.953186,192.099106 295.262329,193.046127 
	C292.475891,194.026825 290.029572,196.440964 287.235260,196.842926 
	C279.562836,197.946548 271.781982,198.281616 264.051636,199.002136 
	C258.376129,199.531143 252.712631,200.188492 247.019608,200.791199 
	C245.179184,201.960083 243.009064,203.076019 241.152344,204.579102 
	C238.371567,206.830292 233.941528,207.847778 234.458069,212.809097 
	C234.458069,212.809097 234.251877,212.781860 233.899643,212.795135 
	C232.042175,213.739075 230.306992,214.432648 229.066254,215.636032 
	C210.927444,233.228714 207.505676,258.377197 220.281464,280.104462 
	C220.796982,280.981171 221.988846,281.460205 222.889084,282.112396 
	C222.912598,282.100250 222.930405,282.050537 223.011536,282.295776 
	C223.378052,282.716583 223.663437,282.892120 223.945755,283.031311 
	C223.942673,282.994965 223.907166,283.058716 223.895020,283.299072 
	C223.882889,283.539398 223.955872,284.015106 224.086288,284.319427 
	C225.737900,286.129242 227.259094,287.634766 228.878235,289.462280 
	C231.030075,291.513153 233.083939,293.242065 235.157898,295.308075 
	C235.310303,296.611084 235.442596,297.576965 235.584229,298.611145 
	C233.768143,297.964630 232.352875,297.460815 230.995422,296.604797 
	C227.763779,293.624176 224.474289,290.995819 221.007874,288.064392 
	C220.209854,287.510529 219.588791,287.259705 218.704056,286.936462 
	C217.921829,286.363739 217.403244,285.863495 216.895554,284.982391 
	C215.553360,281.165894 213.588425,278.432220 209.326904,278.114990 
	C209.159409,278.088562 208.823349,278.043121 208.831329,277.876160 
	C208.839294,277.709198 208.874802,277.376801 208.883926,277.013245 
	C208.417786,276.287567 207.942520,275.925446 207.434509,275.510498 
	C207.401779,275.457611 207.282623,275.421967 207.473495,275.082947 
	C207.010666,274.243713 206.356949,273.743561 205.695160,273.231262 
	C205.687103,273.219086 205.669800,273.249847 205.760254,272.867493 
	C204.661530,269.609009 203.960434,266.376312 202.176620,263.934631 
	C198.950699,259.518951 197.825775,254.863541 197.930542,249.488541 
	C198.156631,237.890671 197.881378,226.283585 198.051300,214.683792 
	C198.137207,208.820129 199.453415,203.321793 204.857803,199.719894 
	C205.505722,199.288055 205.710678,198.092178 205.978287,197.207291 
	C206.880127,194.225388 207.717575,191.224030 208.720139,187.742188 
	C210.898148,189.203857 212.016769,189.954575 213.466431,190.927444 
	C214.694641,185.853790 215.799881,181.288055 217.011017,176.415588 
	C218.335098,174.379166 219.553329,172.649475 220.771545,170.919769 
z"/>
<path fill="#486E7D" opacity="1.000000" stroke="none" 
	d="
M119.001091,95.004128 
	C119.001091,95.004128 119.203934,94.801559 119.634109,94.805901 
	C120.370018,94.563690 120.675751,94.317131 120.981476,94.070572 
	C121.398735,93.986107 121.815994,93.901634 122.785484,94.096130 
	C129.059235,94.375107 134.780746,94.375107 140.729538,94.375107 
	C140.324936,91.685875 140.109726,90.255402 139.894516,88.824936 
	C139.894516,88.824936 139.942703,88.915573 140.235809,88.938118 
	C141.341431,88.679138 142.153931,88.397614 142.966431,88.116089 
	C142.966431,88.116081 143.353439,87.927773 144.011520,87.949097 
	C147.779327,87.645302 150.889053,87.320183 153.948761,87.401169 
	C151.266647,99.206284 148.634537,110.605301 146.002472,122.449295 
	C145.669357,130.597000 145.336197,138.299713 145.001892,146.470764 
	C145.330521,154.290894 145.660294,161.642700 145.990433,169.454712 
	C147.986069,180.606491 149.981339,191.298065 151.985107,202.381836 
	C153.301956,205.877502 154.610275,208.980957 155.919266,212.305420 
	C155.919937,212.526443 155.950089,212.967438 155.951263,213.389343 
	C158.098312,223.693375 161.960342,232.820786 167.974365,241.380936 
	C171.095169,246.423584 173.713043,251.494492 177.322678,255.717712 
	C184.581512,264.210449 192.037674,272.600586 200.106110,280.306763 
	C203.985229,284.011688 209.441299,286.065582 214.149902,288.919678 
	C214.116577,288.972229 214.011749,288.905121 214.222778,289.210693 
	C215.149170,289.662994 215.864532,289.809753 216.878845,289.912231 
	C218.157166,290.525848 219.136536,291.183685 219.979752,291.939178 
	C219.950394,291.983887 220.057190,291.930939 220.411819,291.894257 
	C221.303192,292.346313 221.946716,292.782135 222.723450,293.717773 
	C222.936005,294.906036 223.015366,295.594391 222.704590,296.209900 
	C221.233276,295.793152 220.125275,295.516144 219.075348,295.094513 
	C213.135941,292.709229 207.210464,290.289307 201.062012,287.602783 
	C195.976486,284.246674 190.935394,281.409698 186.275177,278.045166 
	C173.314163,268.687805 161.327591,258.234039 151.146118,245.814713 
	C145.912445,239.430710 140.524780,233.172958 135.162018,226.487793 
	C131.767441,220.036331 128.417542,213.955261 124.931534,207.545837 
	C121.216988,198.805191 117.638565,190.392929 114.044647,181.600769 
	C110.710419,174.166977 110.317184,166.311417 107.947723,158.615875 
	C107.639091,156.486649 107.322960,154.740982 107.295364,152.719208 
	C107.393402,148.635971 107.202904,144.828857 107.304329,140.721130 
	C107.730782,130.842850 107.911957,121.265518 107.986023,111.687363 
	C108.053123,103.009048 108.001839,103.009949 116.089676,101.652168 
	C116.201118,101.633461 116.278732,101.413322 116.578522,101.008492 
	C115.852913,100.379471 115.105186,99.731293 114.357468,99.083115 
	C114.855019,99.471519 115.352570,99.859917 115.850113,100.248322 
	C116.900444,98.500259 117.950768,96.752197 119.001091,95.004128 
z"/>
<path fill="#2B3D53" opacity="1.000000" stroke="none" 
	d="
M246.837601,250.543518 
	C247.992538,250.573578 249.147491,250.603653 250.651947,251.011032 
	C251.026886,251.567398 251.052338,251.746475 250.778290,251.990524 
	C250.356689,252.288071 250.234589,252.520630 250.112488,252.753174 
	C250.558762,252.837402 251.005005,252.995102 251.451294,252.995316 
	C272.967529,253.005829 294.483765,253.002777 316.321655,253.140442 
	C318.095917,253.851700 319.548584,254.423706 320.548615,254.997253 
	C295.922607,254.998764 271.749207,254.998764 247.575790,254.998764 
	C247.469833,255.654572 247.363892,256.310394 247.257950,256.966217 
	C249.041016,257.311188 250.823242,257.951263 252.607315,257.956482 
	C275.740906,258.023926 298.874756,258.001190 322.459045,258.001129 
	C327.233215,258.052612 331.276367,257.323364 334.452942,262.281494 
	C336.644653,265.702484 341.394562,267.484497 345.006348,270.377350 
	C345.828979,271.842194 346.735840,272.873505 347.447083,274.025604 
	C349.446533,277.264526 355.529327,278.244080 352.999115,284.459290 
	C352.998291,289.355560 352.998291,293.790131 352.998291,299.001221 
	C319.691956,299.001221 285.841705,299.001221 251.589111,299.000824 
	C250.111145,299.013794 249.035492,299.027130 247.560120,299.033386 
	C246.096100,298.973267 245.031830,298.920288 244.022995,298.518646 
	C243.712341,296.272949 243.421661,294.357300 242.959427,292.483978 
	C242.474228,290.517731 241.269547,288.568970 241.349136,286.652832 
	C241.604843,280.496521 242.319962,274.359711 242.815872,268.211975 
	C242.853149,267.749969 242.479691,267.269165 242.431122,266.783691 
	C241.938461,261.858002 241.473679,256.929535 241.418259,251.947906 
	C243.502808,251.443817 245.170212,250.993668 246.837601,250.543518 
z"/>
<path fill="#283B50" opacity="1.000000" stroke="none" 
	d="
M208.026672,300.811157 
	C206.945709,300.758087 205.864731,300.704987 204.412231,300.256409 
	C203.997818,299.585602 203.971481,299.308746 204.207520,298.809570 
	C202.960861,298.065826 201.468399,297.542786 199.538269,297.020111 
	C192.826096,295.876862 185.714020,297.453979 180.938522,291.348969 
	C180.595062,290.909912 179.330200,290.970856 178.557251,291.122620 
	C170.893311,292.627716 164.512405,289.072754 157.851929,285.667816 
	C156.090179,284.220673 154.622345,282.645782 152.838364,282.095276 
	C148.648254,280.802185 144.307007,279.998840 140.056671,278.630005 
	C141.640778,274.562866 139.529221,273.666168 136.544281,274.051025 
	C131.087799,274.754517 127.148163,272.355255 123.609200,268.592773 
	C124.269730,268.090210 124.747856,267.726410 125.332977,267.281189 
	C124.707031,266.942291 124.245255,266.462982 123.862251,266.519318 
	C117.962784,267.386780 114.485329,262.390045 109.727928,260.498474 
	C106.659187,259.278351 103.484833,256.419800 102.045021,253.471542 
	C100.087204,249.462570 97.539841,248.614990 93.752792,249.089355 
	C92.983055,248.508011 92.213326,247.926651 91.226013,246.797729 
	C91.399620,244.917755 91.790794,243.585373 92.202019,242.184708 
	C91.529259,241.847122 90.960487,241.329727 90.369209,241.302597 
	C86.459541,241.123215 83.668205,239.899368 83.824738,235.261093 
	C83.845444,234.647552 83.055252,233.599152 82.460114,233.443832 
	C80.059013,232.817276 77.587166,232.461853 75.141449,232.006287 
	C74.522499,231.116806 73.903549,230.227341 73.086830,228.694397 
	C71.118362,222.910141 69.229462,217.730499 64.210762,214.857361 
	C57.822174,211.199997 58.619343,205.222702 59.182392,199.572464 
	C59.664604,194.733475 62.421318,191.450974 67.880257,191.473602 
	C68.288200,191.475296 68.698212,190.977798 69.481834,190.469330 
	C69.040627,188.570328 68.570015,186.544769 68.099396,184.519211 
	C68.099396,184.519211 68.264076,184.257187 68.745407,184.402191 
	C73.897614,185.460297 75.393745,181.353256 78.211388,179.251968 
	C86.088181,176.970627 87.257317,177.332367 88.545570,185.576645 
	C89.309509,190.465622 91.861496,192.655670 96.036697,194.369827 
	C99.597534,202.859116 103.145767,210.963303 110.030334,217.360687 
	C116.042831,225.477005 122.018005,233.238632 128.129028,241.310333 
	C129.463455,243.196869 130.409180,245.082901 131.900436,246.301117 
	C144.457642,256.559174 156.609634,267.427155 169.920013,276.609131 
	C178.731552,282.687622 189.247238,286.295715 199.226105,291.283051 
	C203.969330,293.041626 208.486435,294.526917 213.002655,296.384155 
	C213.001587,297.500000 213.001404,298.243896 212.617493,298.990295 
	C210.824936,299.303284 209.416107,299.613739 207.998688,300.146210 
	C207.990097,300.368256 208.026672,300.811188 208.026672,300.811157 
z"/>
<path fill="#AEC9DE" opacity="1.000000" stroke="none" 
	d="
M289.000000,56.000938 
	C291.719360,54.694138 294.477020,53.459370 297.138947,52.044506 
	C298.179443,51.491459 299.004883,50.533855 299.977234,49.406067 
	C319.349426,52.872688 337.308044,60.307777 355.011719,69.549850 
	C353.991669,71.347504 353.119781,72.884056 351.707886,74.716705 
	C349.476074,77.042496 347.784271,79.072189 346.092468,81.101883 
	C346.092468,81.101883 346.036530,81.094215 345.799225,81.195473 
	C345.405548,81.632553 345.249146,81.968376 345.092743,82.304199 
	C344.998962,82.584709 344.818817,82.789085 343.985352,82.998032 
	C340.177185,85.007950 336.751556,86.688591 333.737854,88.924408 
	C329.173523,92.310585 324.242920,94.705948 318.581421,93.887451 
	C313.416504,93.140755 308.504059,96.838287 303.262909,94.276695 
	C302.464325,93.886406 300.709045,95.481346 299.383911,96.132957 
	C298.089996,96.769203 296.839569,97.652664 295.467407,97.943672 
	C289.181915,99.276665 282.872864,100.510162 276.546814,101.636284 
	C273.041107,102.260361 269.485260,102.602989 265.667267,103.110321 
	C263.737946,104.524284 261.367767,106.261353 258.668701,107.856216 
	C256.893066,108.142067 255.446243,108.570122 253.999725,108.999084 
	C254.000000,109.000000 253.998169,108.999390 253.617188,109.005127 
	C249.020493,109.337021 244.800659,109.902885 240.591751,109.830948 
	C239.453568,109.811493 237.377167,107.857353 237.380859,106.796997 
	C237.411987,97.897514 243.398102,92.507187 249.484543,87.218468 
	C251.167786,85.755836 252.893051,84.241478 254.183121,82.451157 
	C255.890625,80.081520 256.170288,76.226570 260.749146,77.424004 
	C261.292023,77.565964 262.691559,75.823586 263.126312,74.729172 
	C264.484589,71.309883 266.926178,69.915756 270.479858,69.990829 
	C279.567047,70.182800 282.246185,60.863819 288.919586,57.445957 
	C289.136261,57.334995 288.981567,56.498974 289.000000,56.000938 
z"/>
<path fill="#ABC8DC" opacity="1.000000" stroke="none" 
	d="
M288.639832,56.039207 
	C288.981567,56.498974 289.136261,57.334995 288.919586,57.445957 
	C282.246185,60.863819 279.567047,70.182800 270.479858,69.990829 
	C266.926178,69.915756 264.484589,71.309883 263.126312,74.729172 
	C262.691559,75.823586 261.292023,77.565964 260.749146,77.424004 
	C256.170288,76.226570 255.890625,80.081520 254.183121,82.451157 
	C252.893051,84.241478 251.167786,85.755836 249.484543,87.218468 
	C243.398102,92.507187 237.411987,97.897514 237.380859,106.796997 
	C237.377167,107.857353 239.453568,109.811493 240.591751,109.830948 
	C244.800659,109.902885 249.020493,109.337021 253.469513,109.301773 
	C252.822479,110.756699 251.942123,111.920723 251.061768,113.084740 
	C251.061768,113.084740 250.995636,113.059593 250.719727,113.061188 
	C249.975952,113.405045 249.508087,113.747322 249.040222,114.089592 
	C249.040207,114.089584 248.998779,114.024574 248.798248,114.128479 
	C248.405685,114.504715 248.213654,114.777046 248.021622,115.049377 
	C248.021622,115.049377 248.007401,114.996277 247.718796,115.024696 
	C246.962204,115.393707 246.494217,115.734299 246.026215,116.074890 
	C246.026215,116.074890 246.023956,116.001701 245.669083,116.013878 
	C238.421860,118.539490 232.788239,122.609268 229.126907,129.117722 
	C229.126907,129.117722 229.007874,129.000992 228.704742,129.051285 
	C227.310486,130.440277 226.219360,131.778976 225.128235,133.117676 
	C225.128235,133.117676 225.003891,133.005463 224.693588,133.056030 
	C223.277100,134.761551 222.170929,136.416504 221.064758,138.071472 
	C221.064758,138.071472 221.044281,137.988495 220.697784,138.040955 
	C219.588318,139.418640 218.825363,140.743851 218.062393,142.069061 
	C218.062393,142.069061 218.040085,141.988754 217.692856,142.037903 
	C215.075638,144.712036 212.341232,147.070221 210.644150,150.024323 
	C208.079544,154.488541 206.238068,159.368164 204.089264,164.071243 
	C204.089264,164.071243 203.997437,164.037949 203.764893,164.209564 
	C203.389023,165.000717 203.245697,165.620224 203.102371,166.239746 
	C203.102371,166.239746 203.099472,166.625290 202.693909,166.850449 
	C199.678055,168.417053 197.518951,169.916183 200.182648,173.100800 
	C197.747406,181.052612 195.312149,189.004425 192.680603,197.512665 
	C192.335632,198.376816 192.186966,198.684525 192.038300,198.992218 
	C191.312805,202.020111 190.587326,205.047989 189.545532,208.550980 
	C189.148193,209.684296 189.067169,210.342499 188.986145,211.000717 
	C188.932480,212.034622 188.878799,213.068527 188.517609,214.564453 
	C188.148346,215.685425 188.086609,216.344391 188.024872,217.003357 
	C187.955765,219.011520 187.886642,221.019699 187.428833,223.597900 
	C186.357849,227.124298 185.675568,230.080658 184.985489,232.639801 
	C184.316376,229.828293 183.655060,227.414001 182.994888,224.538315 
	C182.664948,219.717941 182.333847,215.358978 182.002747,211.000000 
	C184.931580,137.066315 223.302216,87.445740 288.639832,56.039207 
z"/>
<path fill="#476D7B" opacity="1.000000" stroke="none" 
	d="
M146.002441,122.004318 
	C148.634537,110.605301 151.266647,99.206284 154.171677,87.136780 
	C155.630646,85.646828 156.816681,84.827370 158.002731,84.007912 
	C167.041351,82.425636 176.079956,80.843353 185.520340,79.286484 
	C180.826141,92.663727 175.730179,106.015572 170.077316,119.672783 
	C167.952255,119.617386 166.384094,119.256615 164.815918,118.895844 
	C164.876465,119.930054 164.937027,120.964249 164.997528,122.373260 
	C164.997314,123.497597 164.997131,124.247124 164.652054,125.029770 
	C162.851669,124.853157 160.682144,125.179619 160.056641,124.346626 
	C156.011551,118.959869 151.186310,119.728607 146.002441,122.004318 
z"/>
<path fill="#1C2F3F" opacity="1.000000" stroke="none" 
	d="
M222.865570,282.124542 
	C221.988846,281.460205 220.796982,280.981171 220.281464,280.104462 
	C207.505676,258.377197 210.927444,233.228714 229.066254,215.636032 
	C230.306992,214.432648 232.042175,213.739075 233.919342,212.693024 
	C232.750992,216.141327 231.210709,219.705002 229.102539,223.624756 
	C223.406601,224.675735 223.406601,224.675735 225.707321,231.282913 
	C224.815155,235.856812 223.837646,240.134338 223.683563,244.441330 
	C223.234482,256.996094 223.114548,269.562622 222.865570,282.124542 
z"/>
<path fill="#CEDEE9" opacity="1.000000" stroke="none" 
	d="
M184.993286,233.037018 
	C185.675568,230.080658 186.357849,227.124298 187.382584,224.024567 
	C187.802582,226.952347 187.880142,230.023483 187.958420,234.001602 
	C187.983871,245.018585 190.619049,254.586670 193.966461,264.317322 
	C193.566025,265.110718 193.197433,265.587158 192.533722,265.903503 
	C191.074814,264.401306 189.719467,263.179993 188.782883,261.694580 
	C185.900574,257.123383 183.178467,252.451218 180.370758,247.464386 
	C179.445938,245.111847 178.544479,243.113220 177.553131,240.747116 
	C176.915588,239.255875 176.367935,238.132111 175.835495,236.687241 
	C175.338531,235.211258 174.826355,234.056381 174.300308,232.656754 
	C174.286423,232.412003 174.033127,231.992203 174.023666,231.613678 
	C172.031815,223.823868 170.049423,216.412582 168.067017,209.001282 
	C169.043076,208.020569 170.528275,207.190094 170.872681,206.022980 
	C171.357147,204.381256 170.995193,202.489746 171.681305,200.331024 
	C173.371674,205.468506 174.756638,210.638824 181.633804,210.960388 
	C182.333847,215.358978 182.664948,219.717941 182.612961,224.588913 
	C181.491440,226.564651 180.168320,228.015701 180.136169,229.494797 
	C180.069092,232.580872 180.496948,235.720169 181.120010,238.755814 
	C181.339172,239.823578 182.723557,240.652191 183.575897,241.590027 
	C184.377228,240.509171 185.733963,239.484131 185.849533,238.334351 
	C186.022369,236.614624 185.322144,234.807159 184.993286,233.037018 
z"/>
<path fill="#223245" opacity="1.000000" stroke="none" 
	d="
M251.991455,299.001221 
	C285.841705,299.001221 319.691956,299.001221 352.998291,299.001221 
	C352.998291,293.790131 352.998291,289.355560 353.382202,284.510315 
	C354.510651,285.705688 355.295715,287.294525 355.988464,288.922607 
	C356.699158,290.592834 357.319580,292.301453 357.979523,293.993286 
	C358.004669,294.186798 358.029816,294.380341 357.943176,295.150940 
	C357.817200,296.121155 357.803040,296.514282 357.533142,296.983582 
	C356.998169,297.379883 356.701599,297.688599 356.469330,298.039795 
	C356.448578,298.071259 356.844147,298.378052 357.046356,298.556976 
	C357.393707,298.105865 357.741089,297.654785 358.268494,297.294220 
	C358.717651,297.829498 358.986755,298.274292 359.255829,298.719055 
	C361.055206,300.727051 361.121735,302.226074 358.035156,302.722046 
	C357.386871,302.826233 356.709534,302.756012 356.045563,302.755249 
	C322.016968,302.715759 287.988373,302.675140 253.481628,302.265015 
	C252.674423,301.590729 252.345352,301.286102 252.009583,300.651550 
	C251.999084,299.881500 251.995270,299.441345 251.991455,299.001221 
z"/>
<path fill="#4D6B75" opacity="1.000000" stroke="none" 
	d="
M316.991241,177.993988 
	C318.682495,174.204544 320.569794,170.488083 322.014618,166.606903 
	C323.758209,161.923172 325.226410,157.125671 326.481171,152.291077 
	C326.589935,151.872009 324.222595,150.154083 322.997314,150.145111 
	C308.627747,150.039841 294.226105,149.593796 279.896332,150.385056 
	C269.829132,150.940933 259.859161,153.257812 248.720596,154.960312 
	C250.484970,156.864624 251.040268,157.463974 251.742813,158.222244 
	C251.070267,158.542969 250.625534,158.957336 250.235245,158.911194 
	C242.867645,158.040222 237.105728,160.883987 232.135468,166.167603 
	C231.233856,167.126053 229.042862,166.871582 227.110077,167.033081 
	C226.773041,166.889114 226.861053,166.422134 227.242844,166.121017 
	C229.155182,164.622116 230.685715,163.424316 232.216248,162.226517 
	C232.216248,162.226517 232.101196,162.135666 232.431931,162.166885 
	C233.225784,161.821701 233.688889,161.445282 234.152008,161.068878 
	C251.083405,150.923615 269.468506,147.140640 289.086548,147.842422 
	C302.028076,148.305374 314.999573,147.930023 328.549225,147.930023 
	C328.847290,159.623215 325.415497,169.673935 318.184937,178.621460 
	C317.579041,178.285980 317.316437,178.096619 316.991241,177.993988 
z"/>
<path fill="#496A74" opacity="1.000000" stroke="none" 
	d="
M216.905136,176.722305 
	C215.799881,181.288055 214.694641,185.853790 213.466431,190.927444 
	C212.016769,189.954575 210.898148,189.203857 208.720139,187.742188 
	C207.717575,191.224030 206.880127,194.225388 205.978287,197.207291 
	C205.710678,198.092178 205.505722,199.288055 204.857803,199.719894 
	C199.453415,203.321793 198.137207,208.820129 198.051300,214.683792 
	C197.881378,226.283585 198.156631,237.890671 197.930542,249.488541 
	C197.825775,254.863541 198.950699,259.518951 202.176620,263.934631 
	C203.960434,266.376312 204.661530,269.609009 205.484573,272.671692 
	C198.369217,264.059845 195.377426,253.796768 193.609970,242.815643 
	C193.511047,242.016296 193.318024,241.494431 193.146454,240.527924 
	C192.992615,237.716614 192.817322,235.349915 192.642044,232.983215 
	C192.801346,230.621338 192.960648,228.259476 193.297745,225.243118 
	C193.442947,224.019455 193.410355,223.450256 193.377762,222.881073 
	C193.892792,220.186569 194.407822,217.492050 195.165802,214.159576 
	C195.552032,212.665009 195.695312,211.808426 195.838593,210.951843 
	C196.209686,209.865875 196.580795,208.779892 197.232025,207.139526 
	C197.728577,205.752625 197.944992,204.920120 198.161407,204.087631 
	C199.773697,200.742966 201.386002,197.398315 203.319138,193.559143 
	C203.742020,192.702698 203.844070,192.340775 203.946121,191.978851 
	C203.946121,191.978851 204.005386,191.984558 204.227509,191.805481 
	C204.629242,191.082474 204.808868,190.538574 204.988480,189.994659 
	C204.988480,189.994659 205.000000,190.000000 205.288773,189.872498 
	C206.072540,188.839035 206.567520,187.933060 207.062531,187.027100 
	C208.015671,185.899750 208.968826,184.772415 210.233704,183.170319 
	C211.119339,181.837936 211.693237,180.980301 212.267120,180.122665 
	C213.100082,179.246399 213.933029,178.370148 215.188049,177.160583 
	C216.041794,176.792267 216.473465,176.757278 216.905136,176.722305 
z"/>
<path fill="#1E3041" opacity="1.000000" stroke="none" 
	d="
M222.889069,282.112396 
	C223.114548,269.562622 223.234482,256.996094 223.683563,244.441330 
	C223.837646,240.134338 224.815155,235.856812 226.108871,231.283325 
	C227.604065,231.018082 228.406876,231.035309 229.209671,231.052551 
	C229.682556,232.524445 230.155457,233.996323 230.431931,236.246185 
	C229.157639,239.585953 227.450806,242.078598 227.159668,244.726883 
	C226.787872,248.108673 227.709030,251.611893 227.805984,255.070282 
	C228.003937,262.130432 227.851944,269.205170 228.244797,276.251556 
	C228.335617,277.880493 230.038376,279.419586 231.137848,281.327759 
	C231.015549,284.340942 232.534775,287.619965 228.780273,289.140259 
	C227.259094,287.634766 225.737900,286.129242 224.260223,284.228760 
	C224.171539,283.575409 224.039352,283.317078 223.907166,283.058716 
	C223.907166,283.058716 223.942673,282.994965 223.850861,282.796204 
	C223.482834,282.415131 223.206619,282.232849 222.930405,282.050537 
	C222.930405,282.050537 222.912598,282.100250 222.889069,282.112396 
z"/>
<path fill="#F6FCFD" opacity="1.000000" stroke="none" 
	d="
M192.298416,232.992905 
	C192.817322,235.349915 192.992615,237.716614 192.912186,240.652542 
	C192.942932,241.845551 193.229416,242.469330 193.515884,243.093109 
	C195.377426,253.796768 198.369217,264.059845 205.394135,273.054047 
	C205.669800,273.249847 205.687103,273.219086 205.767029,273.504913 
	C206.325516,274.334473 206.804062,274.878235 207.282623,275.421967 
	C207.282623,275.421967 207.401779,275.457611 207.519897,275.789368 
	C208.050278,276.539673 208.462540,276.958252 208.874802,277.376801 
	C208.874802,277.376801 208.839294,277.709198 208.466217,277.918671 
	C207.294708,278.990387 206.496292,279.852631 205.393402,280.545349 
	C202.854446,278.000763 200.619980,275.625671 198.723022,273.085632 
	C200.220810,268.331177 196.302032,266.623993 193.998291,264.000305 
	C190.619049,254.586670 187.983871,245.018585 187.965057,234.458130 
	C189.298920,233.672638 190.626862,233.337616 192.298416,232.992905 
z"/>
<path fill="#B0C7D7" opacity="1.000000" stroke="none" 
	d="
M258.997559,107.998421 
	C261.367767,106.261353 263.737946,104.524284 265.667267,103.110321 
	C269.485260,102.602989 273.041107,102.260361 276.546814,101.636284 
	C282.872864,100.510162 289.181915,99.276665 295.467407,97.943672 
	C296.839569,97.652664 298.089996,96.769203 299.383911,96.132957 
	C300.709045,95.481346 302.464325,93.886406 303.262909,94.276695 
	C308.504059,96.838287 313.416504,93.140755 318.581421,93.887451 
	C324.242920,94.705948 329.173523,92.310585 333.737854,88.924408 
	C336.751556,86.688591 340.177185,85.007950 343.788727,83.068359 
	C340.554016,90.102348 333.327240,92.178894 326.869354,94.677773 
	C320.943359,96.970833 314.360291,98.616119 308.051575,98.666931 
	C291.153320,98.803024 275.329956,103.040390 259.413483,108.843842 
	C259.009644,108.391129 259.003601,108.194778 258.997559,107.998421 
z"/>
<path fill="#253747" opacity="1.000000" stroke="none" 
	d="
M230.999390,281.000000 
	C230.038376,279.419586 228.335617,277.880493 228.244797,276.251556 
	C227.851944,269.205170 228.003937,262.130432 227.805984,255.070282 
	C227.709030,251.611893 226.787872,248.108673 227.159668,244.726883 
	C227.450806,242.078598 229.157639,239.585953 230.406525,236.572601 
	C234.089920,242.740173 239.032501,247.731979 246.603333,250.271729 
	C245.170212,250.993668 243.502808,251.443817 241.203796,251.660095 
	C239.887512,250.964355 239.246704,250.203873 238.510132,250.095718 
	C236.161957,249.750961 233.748688,249.410629 231.438507,249.697098 
	C231.071686,249.742584 230.983871,253.030807 230.977341,254.820572 
	C230.945496,263.546906 230.985077,272.273499 230.999390,281.000000 
z"/>
<path fill="#2B3B4B" opacity="1.000000" stroke="none" 
	d="
M67.842690,184.694626 
	C68.570015,186.544769 69.040627,188.570328 69.481834,190.469330 
	C68.698212,190.977798 68.288200,191.475296 67.880257,191.473602 
	C62.421318,191.450974 59.664604,194.733475 59.182392,199.572464 
	C58.619343,205.222702 57.822174,211.199997 64.210762,214.857361 
	C69.229462,217.730499 71.118362,222.910141 72.940933,228.398285 
	C66.551910,220.778793 60.165688,212.766739 53.639309,204.870514 
	C51.470806,202.246872 51.945805,200.269806 54.220161,198.086029 
	C58.739162,193.747070 63.137688,189.282639 67.842690,184.694626 
z"/>
<path fill="#406574" opacity="1.000000" stroke="none" 
	d="
M118.626694,95.021088 
	C117.950768,96.752197 116.900444,98.500259 115.850113,100.248322 
	C115.352570,99.859917 114.855019,99.471519 114.357468,99.083115 
	C115.105186,99.731293 115.852913,100.379471 116.578522,101.008492 
	C116.278732,101.413322 116.201118,101.633461 116.089676,101.652168 
	C108.001839,103.009949 108.053123,103.009048 107.986023,111.687363 
	C107.911957,121.265518 107.730782,130.842850 107.015350,140.450409 
	C105.715698,136.438492 104.328461,132.382782 104.412254,128.357712 
	C104.609024,118.906387 101.300621,109.063965 107.001137,100.111610 
	C110.751526,98.420418 114.501915,96.729233 118.626694,95.021088 
z"/>
<path fill="#496A74" opacity="1.000000" stroke="none" 
	d="
M234.764038,212.645630 
	C233.941528,207.847778 238.371567,206.830292 241.152344,204.579102 
	C243.009064,203.076019 245.179184,201.960083 247.019608,200.791199 
	C252.712631,200.188492 258.376129,199.531143 264.051636,199.002136 
	C271.781982,198.281616 279.562836,197.946548 287.235260,196.842926 
	C290.029572,196.440964 292.475891,194.026825 295.262329,193.046127 
	C297.953186,192.099106 300.877747,191.816055 304.042603,191.402863 
	C295.843475,197.654800 286.081268,199.437515 275.854889,200.154037 
	C267.611481,200.731613 259.173157,201.192734 251.291977,203.392075 
	C245.490875,205.010986 240.449768,209.353378 234.764038,212.645630 
z"/>
<path fill="#2B3B4B" opacity="1.000000" stroke="none" 
	d="
M77.998779,178.999710 
	C75.393745,181.353256 73.897614,185.460297 68.877373,184.321381 
	C74.034340,178.728928 79.284439,173.062561 85.116371,168.076767 
	C91.419052,162.688507 98.265266,157.935989 105.554047,152.887207 
	C106.491409,152.910614 106.749115,152.952972 107.006821,152.995331 
	C107.322960,154.740982 107.639091,156.486649 107.517525,158.614746 
	C102.937790,158.540466 99.287300,159.419693 96.102562,162.361679 
	C93.727257,164.555908 90.842712,166.200836 88.480698,168.407043 
	C84.853333,171.795105 81.479950,175.455109 77.998779,178.999710 
z"/>
<path fill="#253747" opacity="1.000000" stroke="none" 
	d="
M93.879669,249.408585 
	C97.539841,248.614990 100.087204,249.462570 102.045021,253.471542 
	C103.484833,256.419800 106.659187,259.278351 109.727928,260.498474 
	C114.485329,262.390045 117.962784,267.386780 123.862251,266.519318 
	C124.245255,266.462982 124.707031,266.942291 125.332977,267.281189 
	C124.747856,267.726410 124.269730,268.090210 123.609200,268.592773 
	C127.148163,272.355255 131.087799,274.754517 136.544281,274.051025 
	C139.529221,273.666168 141.640778,274.562866 139.842865,278.724243 
	C139.324570,279.358002 139.133469,279.597107 139.026001,279.903015 
	C122.449699,272.186676 107.109123,262.626709 93.879669,249.408585 
z"/>
<path fill="#3B4955" opacity="1.000000" stroke="none" 
	d="
M158.002151,286.005585 
	C164.512405,289.072754 170.893311,292.627716 178.557251,291.122620 
	C179.330200,290.970856 180.595062,290.909912 180.938522,291.348969 
	C185.714020,297.453979 192.826096,295.876862 199.699020,297.323242 
	C201.518845,298.094086 202.740265,298.562195 203.961700,299.030273 
	C203.971481,299.308746 203.997818,299.585602 204.049072,300.069397 
	C188.273407,296.174652 172.489410,292.071381 156.794525,287.540192 
	C157.256470,286.743378 157.629318,286.374481 158.002151,286.005585 
z"/>
<path fill="#213547" opacity="1.000000" stroke="none" 
	d="
M208.007278,299.924164 
	C209.416107,299.613739 210.824936,299.303284 213.028595,298.993622 
	C216.018082,299.191467 218.212708,299.388519 220.407349,299.585571 
	C220.452744,299.263611 220.498138,298.941650 220.543518,298.619720 
	C218.030197,297.750549 215.516876,296.881378 213.003555,296.012207 
	C208.486435,294.526917 203.969330,293.041626 199.257019,290.941925 
	C199.801300,289.512054 200.540771,288.696625 201.280243,287.881165 
	C207.210464,290.289307 213.135941,292.709229 219.075348,295.094513 
	C220.125275,295.516144 221.233276,295.793152 222.826080,296.468567 
	C224.571686,297.712860 225.805649,298.625549 227.799866,300.100555 
	C227.645966,300.178528 226.815613,300.599213 225.552094,301.016479 
	C222.430283,301.270721 219.741608,301.528381 217.052948,301.786011 
	C215.648422,301.731598 214.243896,301.677124 212.304565,301.170441 
	C210.515610,300.453552 209.261444,300.188873 208.007278,299.924164 
z"/>
<path fill="#1E3041" opacity="1.000000" stroke="none" 
	d="
M316.000000,253.001221 
	C294.483765,253.002777 272.967529,253.005829 251.451294,252.995316 
	C251.005005,252.995102 250.558762,252.837402 250.112488,252.753174 
	C250.234589,252.520630 250.356689,252.288071 251.154053,252.002228 
	C253.215302,251.651764 254.601318,251.354584 255.987335,251.057404 
	C275.687347,251.098190 295.387390,251.138977 315.520172,251.602142 
	C315.983429,252.349365 315.999115,252.674927 316.000000,253.001221 
z"/>
<path fill="#2B3B4B" opacity="1.000000" stroke="none" 
	d="
M316.321655,253.140442 
	C315.999115,252.674927 315.983429,252.349365 315.955383,251.780029 
	C327.689514,253.339630 338.186401,257.515533 345.939941,267.743011 
	C345.677094,268.920135 345.339172,269.459534 345.001221,269.998962 
	C341.394562,267.484497 336.644653,265.702484 334.452942,262.281494 
	C331.276367,257.323364 327.233215,258.052612 322.491699,257.702820 
	C322.446655,256.747925 322.819458,256.091187 323.330383,255.191208 
	C322.481201,255.119949 321.741211,255.057846 321.001221,254.995728 
	C319.548584,254.423706 318.095917,253.851700 316.321655,253.140442 
z"/>
<path fill="#496A74" opacity="1.000000" stroke="none" 
	d="
M107.295364,152.719208 
	C106.749115,152.952972 106.491409,152.910614 105.859085,152.753174 
	C105.160011,149.229187 104.774925,145.824738 104.521942,142.410507 
	C103.591743,129.856812 102.705559,117.299858 101.802376,104.744164 
	C101.577492,101.617958 102.372833,99.415634 106.582253,100.015961 
	C101.300621,109.063965 104.609024,118.906387 104.412254,128.357712 
	C104.328461,132.382782 105.715698,136.438492 106.723427,140.751007 
	C107.202904,144.828857 107.393402,148.635971 107.295364,152.719208 
z"/>
<path fill="#2B3E4E" opacity="1.000000" stroke="none" 
	d="
M225.985275,301.019897 
	C226.815613,300.599213 227.645966,300.178528 227.799866,300.100555 
	C225.805649,298.625549 224.571686,297.712860 223.216232,296.541473 
	C223.015366,295.594391 222.936005,294.906036 223.100800,293.896881 
	C225.875839,294.703094 228.406708,295.830048 230.937592,296.957031 
	C232.352875,297.460815 233.768143,297.964630 235.584229,298.611145 
	C235.442596,297.576965 235.310303,296.611084 235.489120,295.358032 
	C237.532196,296.016785 239.264175,296.962616 240.868515,298.210693 
	C240.153839,299.908203 239.566803,301.303436 238.979767,302.698669 
	C235.263657,302.705383 231.547531,302.712097 227.259979,302.414490 
	C226.454132,301.746735 226.219711,301.383301 225.985275,301.019897 
z"/>
<path fill="#253747" opacity="1.000000" stroke="none" 
	d="
M345.006348,270.377350 
	C345.339172,269.459534 345.677094,268.920135 346.059113,268.050720 
	C353.157227,274.926727 358.750397,282.828918 358.197388,293.774780 
	C357.319580,292.301453 356.699158,290.592834 355.988464,288.922607 
	C355.295715,287.294525 354.510651,285.705688 353.383057,284.048584 
	C355.529327,278.244080 349.446533,277.264526 347.447083,274.025604 
	C346.735840,272.873505 345.828979,271.842194 345.006348,270.377350 
z"/>
<path fill="#223245" opacity="1.000000" stroke="none" 
	d="
M75.143669,232.343567 
	C77.587166,232.461853 80.059013,232.817276 82.460114,233.443832 
	C83.055252,233.599152 83.845444,234.647552 83.824738,235.261093 
	C83.668205,239.899368 86.459541,241.123215 90.369209,241.302597 
	C90.960487,241.329727 91.529259,241.847122 92.202019,242.184708 
	C91.790794,243.585373 91.399620,244.917755 91.002411,246.601837 
	C89.063454,245.601242 86.941116,244.451080 85.237297,242.854340 
	C81.754379,239.590256 78.496468,236.086105 75.143669,232.343567 
z"/>
<path fill="#2B3B4B" opacity="1.000000" stroke="none" 
	d="
M157.851929,285.667816 
	C157.629318,286.374481 157.256470,286.743378 156.528610,287.295288 
	C150.625870,285.111938 145.078140,282.745605 139.278214,280.141144 
	C139.133469,279.597107 139.324570,279.358002 139.813110,279.091522 
	C144.307007,279.998840 148.648254,280.802185 152.838364,282.095276 
	C154.622345,282.645782 156.090179,284.220673 157.851929,285.667816 
z"/>
<path fill="#3C5E6D" opacity="1.000000" stroke="none" 
	d="
M139.488602,88.870026 
	C140.109726,90.255402 140.324936,91.685875 140.729538,94.375107 
	C134.780746,94.375107 129.059235,94.375107 123.106812,94.075455 
	C128.278152,92.155571 133.680420,90.535339 139.488602,88.870026 
z"/>
<path fill="#B0C7D7" opacity="1.000000" stroke="none" 
	d="
M204.394470,163.920013 
	C206.238068,159.368164 208.079544,154.488541 210.644150,150.024323 
	C212.341232,147.070221 215.075638,144.712036 217.714935,142.074097 
	C213.622696,149.297012 209.161179,156.532913 204.394470,163.920013 
z"/>
<path fill="#496A74" opacity="1.000000" stroke="none" 
	d="
M316.721069,178.188477 
	C317.316437,178.096619 317.579041,178.285980 317.889801,178.781921 
	C313.702393,183.120193 309.404266,187.238647 304.785339,191.442535 
	C305.027252,189.450119 305.589996,187.372284 306.212799,185.072601 
	C311.452484,185.861633 313.789337,181.877670 316.721069,178.188477 
z"/>
<path fill="#3B4955" opacity="1.000000" stroke="none" 
	d="
M239.357498,302.824219 
	C239.566803,301.303436 240.153839,299.908203 241.183228,298.251221 
	C242.406235,298.282104 243.186905,298.574707 243.967560,298.867310 
	C245.031830,298.920288 246.096100,298.973267 247.732285,299.330566 
	C249.541565,300.083710 250.778931,300.532562 252.016281,300.981445 
	C252.345352,301.286102 252.674423,301.590729 253.038498,302.124268 
	C248.627396,302.552032 244.181320,302.750916 239.357498,302.824219 
z"/>
<path fill="#B0C7D7" opacity="1.000000" stroke="none" 
	d="
M229.471802,129.101532 
	C232.788239,122.609268 238.421860,118.539490 245.694458,116.040283 
	C243.345123,118.272194 240.626801,120.503883 237.882767,122.703514 
	C235.207748,124.847847 232.506454,126.959389 229.471802,129.101532 
z"/>
<path fill="#253747" opacity="1.000000" stroke="none" 
	d="
M229.310089,230.681519 
	C228.406876,231.035309 227.604065,231.018082 226.399719,231.000427 
	C223.406601,224.675735 223.406601,224.675735 228.891205,223.966629 
	C229.302017,226.071777 229.356262,228.191132 229.310089,230.681519 
z"/>
<path fill="#3C5E6D" opacity="1.000000" stroke="none" 
	d="
M157.606964,83.965714 
	C156.816681,84.827370 155.630646,85.646828 154.221680,86.730675 
	C150.889053,87.320183 147.779327,87.645302 144.226685,87.952866 
	C148.259567,86.598045 152.735367,85.260780 157.606964,83.965714 
z"/>
<path fill="#3B4955" opacity="1.000000" stroke="none" 
	d="
M225.552124,301.016479 
	C226.219711,301.383301 226.454132,301.746735 226.809662,302.292358 
	C223.873474,302.357910 220.816193,302.241272 217.405914,301.955322 
	C219.741608,301.528381 222.430283,301.270721 225.552124,301.016479 
z"/>
<path fill="#B0C7D7" opacity="1.000000" stroke="none" 
	d="
M346.426819,81.058014 
	C347.784271,79.072189 349.476074,77.042496 351.525543,75.009369 
	C350.175842,77.008675 348.468506,79.011406 346.426819,81.058014 
z"/>
<path fill="#E5F1F4" opacity="1.000000" stroke="none" 
	d="
M217.011017,176.415588 
	C216.473465,176.757278 216.041794,176.792267 215.288055,176.872345 
	C216.682510,174.953812 218.399017,172.990173 220.443527,170.973145 
	C219.553329,172.649475 218.335098,174.379166 217.011017,176.415588 
z"/>
<path fill="#B0C7D7" opacity="1.000000" stroke="none" 
	d="
M200.419968,172.865921 
	C197.518951,169.916183 199.678055,168.417053 202.646286,167.037262 
	C202.221924,168.876282 201.439606,170.753662 200.419968,172.865921 
z"/>
<path fill="#B0C7D7" opacity="1.000000" stroke="none" 
	d="
M251.405746,113.052299 
	C251.942123,111.920723 252.822479,110.756699 253.850494,109.296036 
	C253.998169,108.999390 254.000000,109.000000 254.354980,109.002617 
	C255.509445,109.393944 256.308929,109.782661 257.108429,110.171371 
	C255.322189,111.120872 253.535965,112.070366 251.405746,113.052299 
z"/>
<path fill="#ABC8DC" opacity="1.000000" stroke="none" 
	d="
M257.387146,110.116989 
	C256.308929,109.782661 255.509445,109.393944 254.354691,109.001709 
	C255.446243,108.570122 256.893066,108.142067 258.668701,107.856216 
	C259.003601,108.194778 259.009644,108.391129 259.034088,108.882950 
	C258.590271,109.473152 258.128052,109.767883 257.387146,110.116989 
z"/>
<path fill="#E5F1F4" opacity="1.000000" stroke="none" 
	d="
M231.827866,162.156586 
	C230.685715,163.424316 229.155182,164.622116 227.303055,165.891174 
	C226.863266,162.825333 228.931946,162.203598 231.827866,162.156586 
z"/>
<path fill="#B0C7D7" opacity="1.000000" stroke="none" 
	d="
M221.365799,137.931503 
	C222.170929,136.416504 223.277100,134.761551 224.751129,133.116943 
	C223.968277,134.682053 222.817566,136.236801 221.365799,137.931503 
z"/>
<path fill="#3B4955" opacity="1.000000" stroke="none" 
	d="
M357.788879,296.907440 
	C357.803040,296.514282 357.817200,296.121155 357.885101,295.437866 
	C358.560883,296.292511 359.182922,297.437286 359.530396,298.650574 
	C358.986755,298.274292 358.717651,297.829498 358.201416,297.212280 
	C357.954254,297.039856 357.788910,296.907440 357.788879,296.907440 
z"/>
<path fill="#4D5B66" opacity="1.000000" stroke="none" 
	d="
M255.718384,250.877869 
	C254.601318,251.354584 253.215302,251.651764 251.453537,251.937256 
	C251.052338,251.746475 251.026886,251.567398 250.987823,251.117371 
	C252.465942,250.797058 253.957687,250.747711 255.718384,250.877869 
z"/>
<path fill="#B0C7D7" opacity="1.000000" stroke="none" 
	d="
M225.469208,133.103546 
	C226.219360,131.778976 227.310486,130.440277 228.759491,129.113861 
	C228.014969,130.447235 226.912582,131.768326 225.469208,133.103546 
z"/>
<path fill="#B0C7D7" opacity="1.000000" stroke="none" 
	d="
M218.357269,141.924500 
	C218.825363,140.743851 219.588318,139.418640 220.719574,138.078430 
	C220.275940,139.302261 219.464050,140.541107 218.357269,141.924500 
z"/>
<path fill="#3B4955" opacity="1.000000" stroke="none" 
	d="
M207.998688,300.146210 
	C209.261444,300.188873 210.515610,300.453552 211.914764,301.005981 
	C210.914154,301.251678 209.768539,301.209686 208.324799,300.989441 
	C208.026672,300.811188 207.990097,300.368256 207.998688,300.146210 
z"/>
<path fill="#CEDEE9" opacity="1.000000" stroke="none" 
	d="
M197.828705,204.104553 
	C197.944992,204.920120 197.728577,205.752625 197.262115,206.794067 
	C197.173370,206.042496 197.334686,205.081985 197.828705,204.104553 
z"/>
<path fill="#CEDEE9" opacity="1.000000" stroke="none" 
	d="
M195.532120,211.009384 
	C195.695312,211.808426 195.552032,212.665009 195.173355,213.752548 
	C195.033859,213.011307 195.129761,212.039124 195.532120,211.009384 
z"/>
<path fill="#E5F1F4" opacity="1.000000" stroke="none" 
	d="
M206.714890,187.072510 
	C206.567520,187.933060 206.072540,188.839035 205.285065,189.867279 
	C205.450821,189.032349 205.909042,188.075134 206.714890,187.072510 
z"/>
<path fill="#E5F1F4" opacity="1.000000" stroke="none" 
	d="
M211.902771,180.128387 
	C211.693237,180.980301 211.119339,181.837936 210.267792,182.838013 
	C210.506226,182.031662 211.022324,181.082886 211.902771,180.128387 
z"/>
<path fill="#CEDEE9" opacity="1.000000" stroke="none" 
	d="
M188.269379,216.818283 
	C188.086609,216.344391 188.148346,215.685425 188.467804,214.949295 
	C188.654968,215.459152 188.584427,216.046188 188.269379,216.818283 
z"/>
<path fill="#CEDEE9" opacity="1.000000" stroke="none" 
	d="
M193.135803,222.968170 
	C193.410355,223.450256 193.442947,224.019455 193.268707,224.798813 
	C193.005875,224.357742 192.949860,223.706497 193.135803,222.968170 
z"/>
<path fill="#CEDEE9" opacity="1.000000" stroke="none" 
	d="
M189.234802,210.819519 
	C189.067169,210.342499 189.148193,209.684296 189.488312,208.952179 
	C189.659424,209.464966 189.571442,210.051636 189.234802,210.819519 
z"/>
<path fill="#3C5E6D" opacity="1.000000" stroke="none" 
	d="
M142.612732,88.030975 
	C142.153931,88.397614 141.341431,88.679138 140.185654,88.927277 
	C140.647934,88.577881 141.453476,88.261864 142.612732,88.030975 
z"/>
<path fill="#B0C7D7" opacity="1.000000" stroke="none" 
	d="
M249.345551,114.075684 
	C249.508087,113.747322 249.975952,113.405045 250.754059,113.061806 
	C250.593140,113.394478 250.122009,113.728119 249.345551,114.075684 
z"/>
<path fill="#B0C7D7" opacity="1.000000" stroke="none" 
	d="
M246.329559,116.049667 
	C246.494217,115.734299 246.962204,115.393707 247.738495,115.043961 
	C247.575516,115.364685 247.104218,115.694565 246.329559,116.049667 
z"/>
<path fill="#E5F1F4" opacity="1.000000" stroke="none" 
	d="
M204.743256,190.155334 
	C204.808868,190.538574 204.629242,191.082474 204.206879,191.784012 
	C204.142090,191.399765 204.320053,190.857880 204.743256,190.155334 
z"/>
<path fill="#B0C7D7" opacity="1.000000" stroke="none" 
	d="
M203.343597,166.033783 
	C203.245697,165.620224 203.389023,165.000717 203.812820,164.214996 
	C203.923813,164.641800 203.754318,165.234802 203.343597,166.033783 
z"/>
<path fill="#E5F1F4" opacity="1.000000" stroke="none" 
	d="
M233.820587,161.059143 
	C233.688889,161.445282 233.225784,161.821701 232.457703,162.235504 
	C232.598236,161.865082 233.043716,161.457245 233.820587,161.059143 
z"/>
<path fill="#B0C7D7" opacity="1.000000" stroke="none" 
	d="
M345.320160,82.147629 
	C345.249146,81.968376 345.405548,81.632553 345.817200,81.173714 
	C345.897522,81.364151 345.722565,81.677612 345.320160,82.147629 
z"/>
<path fill="#E5F1F4" opacity="1.000000" stroke="none" 
	d="
M203.716736,192.149338 
	C203.844070,192.340775 203.742020,192.702698 203.401566,193.226074 
	C203.271210,193.031631 203.379272,192.675720 203.716736,192.149338 
z"/>
<path fill="#B0C7D7" opacity="1.000000" stroke="none" 
	d="
M248.258301,114.954498 
	C248.213654,114.777046 248.405685,114.504715 248.835144,114.139603 
	C248.880051,114.317757 248.687515,114.588684 248.258301,114.954498 
z"/>
<path fill="#F6FCFD" opacity="1.000000" stroke="none" 
	d="
M192.265808,198.853912 
	C192.186966,198.684525 192.335632,198.376816 192.692307,197.909607 
	C192.764648,198.071960 192.628983,198.393784 192.265808,198.853912 
z"/>
<path fill="#3C5E6D" opacity="1.000000" stroke="none" 
	d="
M120.667160,94.068420 
	C120.675751,94.317131 120.370018,94.563690 119.764359,94.865723 
	C119.760574,94.636230 120.056717,94.351242 120.667160,94.068420 
z"/>
<path fill="#365664" opacity="1.000000" stroke="none" 
	d="
M155.950089,212.967438 
	C155.950089,212.967438 155.919937,212.526443 156.219086,212.024719 
	C157.711868,204.167267 156.932251,202.530762 151.976608,201.989624 
	C149.981339,191.298065 147.986069,180.606491 146.343567,169.512146 
	C147.479141,170.298737 148.129395,171.608383 149.074783,172.650253 
	C150.626862,174.360764 152.114609,176.687759 154.091461,177.327682 
	C157.290085,178.363144 159.617401,179.284058 159.129196,183.217834 
	C159.064713,183.737411 159.917877,184.370865 160.492401,185.150085 
	C161.756500,182.856766 162.816376,180.933929 163.876251,179.011108 
	C164.959808,188.046677 166.043350,197.082260 166.805664,206.771652 
	C165.284988,212.261307 164.085571,217.097153 162.918747,221.801636 
	C160.364563,218.563690 158.157333,215.765564 155.950089,212.967438 
z"/>
<path fill="#406574" opacity="1.000000" stroke="none" 
	d="
M146.002472,122.449295 
	C151.186310,119.728607 156.011551,118.959869 160.056641,124.346626 
	C160.682144,125.179619 162.851669,124.853157 164.654236,125.451797 
	C165.374207,129.580109 165.747086,133.319519 166.119965,137.058929 
	C166.139893,138.116287 166.159821,139.173660 165.781281,140.650024 
	C165.290817,141.729813 165.198807,142.390564 165.106796,143.051331 
	C165.080032,143.792267 165.053268,144.533218 164.707321,145.871857 
	C163.653870,148.907837 162.919617,151.346085 161.754959,155.213547 
	C159.170670,152.048935 157.679367,148.769226 155.179810,147.540390 
	C152.244873,146.097519 148.434021,146.436340 145.003052,146.002441 
	C145.336197,138.299713 145.669357,130.597000 146.002472,122.449295 
z"/>
<path fill="#3C5E6D" opacity="1.000000" stroke="none" 
	d="
M145.001892,146.470764 
	C148.434021,146.436340 152.244873,146.097519 155.179810,147.540390 
	C157.679367,148.769226 159.170670,152.048935 161.754959,155.213547 
	C162.919617,151.346085 163.653870,148.907837 164.677658,146.241486 
	C164.653427,151.399872 164.339691,156.786362 163.550797,162.696930 
	C161.850494,167.887772 160.316925,172.571075 163.814438,176.984314 
	C163.878830,177.434875 163.943237,177.885437 163.941940,178.673553 
	C162.816376,180.933929 161.756500,182.856766 160.492401,185.150085 
	C159.917877,184.370865 159.064713,183.737411 159.129196,183.217834 
	C159.617401,179.284058 157.290085,178.363144 154.091461,177.327682 
	C152.114609,176.687759 150.626862,174.360764 149.074783,172.650253 
	C148.129395,171.608383 147.479141,170.298737 146.343201,169.051941 
	C145.660294,161.642700 145.330521,154.290894 145.001892,146.470764 
z"/>
<path fill="#324E5D" opacity="1.000000" stroke="none" 
	d="
M155.951263,213.389343 
	C158.157333,215.765564 160.364563,218.563690 162.918747,221.801636 
	C164.085571,217.097153 165.284988,212.261307 166.779449,207.194458 
	C167.301712,207.482285 167.528931,208.001144 167.911591,208.760651 
	C170.049423,216.412582 172.031815,223.823868 173.854172,231.726624 
	C173.900818,232.445892 174.107513,232.673691 174.314194,232.901505 
	C174.826355,234.056381 175.338531,235.211258 175.469620,236.684998 
	C172.699051,238.344498 170.309586,239.685104 167.920105,241.025726 
	C161.960342,232.820786 158.098312,223.693375 155.951263,213.389343 
z"/>
<path fill="#3C5E6D" opacity="1.000000" stroke="none" 
	d="
M166.406784,136.901321 
	C165.747086,133.319519 165.374207,129.580109 164.999146,125.418671 
	C164.997131,124.247124 164.997314,123.497597 165.398773,122.373772 
	C167.134277,122.003136 168.468491,122.006805 169.802704,122.010468 
	C168.766327,126.921547 167.729965,131.832626 166.406784,136.901321 
z"/>
<path fill="#365664" opacity="1.000000" stroke="none" 
	d="
M163.871414,176.523926 
	C160.316925,172.571075 161.850494,167.887772 163.456299,163.118301 
	C163.867416,167.364899 163.897903,171.714218 163.871414,176.523926 
z"/>
<path fill="#406574" opacity="1.000000" stroke="none" 
	d="
M169.941650,121.687164 
	C168.468491,122.006805 167.134277,122.003136 165.398834,121.998962 
	C164.937027,120.964249 164.876465,119.930054 164.815918,118.895844 
	C166.384094,119.256615 167.952255,119.617386 169.898102,119.976585 
	C170.210709,120.437965 170.145660,120.900917 169.941650,121.687164 
z"/>
<path fill="#3C5E6D" opacity="1.000000" stroke="none" 
	d="
M165.373688,142.900330 
	C165.198807,142.390564 165.290817,141.729813 165.679993,141.035278 
	C165.864975,141.584122 165.752777,142.166718 165.373688,142.900330 
z"/>
<path fill="#24394C" opacity="1.000000" stroke="none" 
	d="
M244.022995,298.518646 
	C243.186905,298.574707 242.406235,298.282104 241.310852,297.948975 
	C239.264175,296.962616 237.532196,296.016785 235.469025,295.020935 
	C233.083939,293.242065 231.030075,291.513153 228.878235,289.462280 
	C232.534775,287.619965 231.015549,284.340942 231.137848,281.327759 
	C230.985077,272.273499 230.945496,263.546906 230.977341,254.820572 
	C230.983871,253.030807 231.071686,249.742584 231.438507,249.697098 
	C233.748688,249.410629 236.161957,249.750961 238.510132,250.095718 
	C239.246704,250.203873 239.887512,250.964355 240.786621,251.714035 
	C241.473679,256.929535 241.938461,261.858002 242.431122,266.783691 
	C242.479691,267.269165 242.853149,267.749969 242.815872,268.211975 
	C242.319962,274.359711 241.604843,280.496521 241.349136,286.652832 
	C241.269547,288.568970 242.474228,290.517731 242.959427,292.483978 
	C243.421661,294.357300 243.712341,296.272949 244.022995,298.518646 
z"/>
<path fill="#CEDEE9" opacity="1.000000" stroke="none" 
	d="
M230.995422,296.604797 
	C228.406708,295.830048 225.875839,294.703094 222.967590,293.397034 
	C221.946716,292.782135 221.303192,292.346313 220.354004,291.944336 
	C220.048355,291.978180 220.115906,291.841553 220.115906,291.841553 
	C219.136536,291.183685 218.157166,290.525848 216.656067,289.575562 
	C215.426804,289.157135 214.719269,289.031128 214.011749,288.905121 
	C214.011749,288.905121 214.116577,288.972229 214.234650,288.618469 
	C213.476059,287.419342 212.599396,286.573944 212.028183,285.009033 
	C212.561050,283.820557 212.788467,283.351624 213.302948,283.044250 
	C214.688248,283.924927 215.786469,284.644104 216.884674,285.363251 
	C217.403244,285.863495 217.921829,286.363739 218.897736,287.211090 
	C219.964981,287.827942 220.574890,288.097687 221.184799,288.367432 
	C224.474289,290.995819 227.763779,293.624176 230.995422,296.604797 
z"/>
<path fill="#E5F1F4" opacity="1.000000" stroke="none" 
	d="
M213.015869,282.882721 
	C212.788467,283.351624 212.561050,283.820557 211.719467,284.852509 
	C209.302811,283.848663 207.500351,282.281769 205.697876,280.714874 
	C206.496292,279.852631 207.294708,278.990387 208.458237,278.085632 
	C208.823349,278.043121 209.159409,278.088562 209.488495,278.415009 
	C210.883682,280.121887 211.949783,281.502289 213.015869,282.882721 
z"/>
<path fill="#496A74" opacity="1.000000" stroke="none" 
	d="
M213.302948,283.044250 
	C211.949783,281.502289 210.883682,280.121887 209.656006,278.441406 
	C213.588425,278.432220 215.553360,281.165894 216.895554,284.982391 
	C215.786469,284.644104 214.688248,283.924927 213.302948,283.044250 
z"/>
<path fill="#496A74" opacity="1.000000" stroke="none" 
	d="
M207.473495,275.082947 
	C206.804062,274.878235 206.325516,274.334473 205.775085,273.517090 
	C206.356949,273.743561 207.010666,274.243713 207.473495,275.082947 
z"/>
<path fill="#496A74" opacity="1.000000" stroke="none" 
	d="
M208.883926,277.013245 
	C208.462540,276.958252 208.050278,276.539673 207.552643,275.842224 
	C207.942520,275.925446 208.417786,276.287567 208.883926,277.013245 
z"/>
<path fill="#496A74" opacity="1.000000" stroke="none" 
	d="
M221.007874,288.064392 
	C220.574890,288.097687 219.964981,287.827942 219.161392,287.283569 
	C219.588791,287.259705 220.209854,287.510529 221.007874,288.064392 
z"/>
<path fill="#1C2F3F" opacity="1.000000" stroke="none" 
	d="
M223.895020,283.299072 
	C224.039352,283.317078 224.171539,283.575409 224.129807,283.924438 
	C223.955872,284.015106 223.882889,283.539398 223.895020,283.299072 
z"/>
<path fill="#1C2F3F" opacity="1.000000" stroke="none" 
	d="
M223.011536,282.295776 
	C223.206619,282.232849 223.482834,282.415131 223.853943,282.832550 
	C223.663437,282.892120 223.378052,282.716583 223.011536,282.295776 
z"/>
<path fill="#192C3D" opacity="1.000000" stroke="none" 
	d="
M201.062012,287.602783 
	C200.540771,288.696625 199.801300,289.512054 199.030914,290.668640 
	C189.247238,286.295715 178.731552,282.687622 169.920013,276.609131 
	C156.609634,267.427155 144.457642,256.559174 131.900436,246.301117 
	C130.409180,245.082901 129.463455,243.196869 128.503571,241.305115 
	C131.819489,239.129288 134.896698,237.268768 137.499161,235.695282 
	C136.611832,232.274750 135.909256,229.566452 135.206696,226.858154 
	C140.524780,233.172958 145.912445,239.430710 151.146118,245.814713 
	C161.327591,258.234039 173.314163,268.687805 186.275177,278.045166 
	C190.935394,281.409698 195.976486,284.246674 201.062012,287.602783 
z"/>
<path fill="#263A4C" opacity="1.000000" stroke="none" 
	d="
M78.211388,179.251968 
	C81.479950,175.455109 84.853333,171.795105 88.480698,168.407043 
	C90.842712,166.200836 93.727257,164.555908 96.102562,162.361679 
	C99.287300,159.419693 102.937790,158.540466 107.510017,158.998322 
	C110.317184,166.311417 110.710419,174.166977 113.665207,181.602570 
	C106.998459,179.849899 106.998459,179.849899 105.249557,186.566040 
	C100.842995,187.386597 97.135796,189.100418 95.995728,194.002441 
	C91.861496,192.655670 89.309509,190.465622 88.545570,185.576645 
	C87.257317,177.332367 86.088181,176.970627 78.211388,179.251968 
z"/>
<path fill="#213547" opacity="1.000000" stroke="none" 
	d="
M96.036697,194.369827 
	C97.135796,189.100418 100.842995,187.386597 105.249557,186.566040 
	C106.998459,179.849899 106.998459,179.849899 113.680695,181.982452 
	C117.638565,190.392929 121.216988,198.805191 124.768768,207.913818 
	C124.381996,212.334656 122.236336,213.515533 118.715218,213.021484 
	C115.012749,212.501984 111.816742,213.308197 109.993019,217.005997 
	C103.145767,210.963303 99.597534,202.859116 96.036697,194.369827 
z"/>
<path fill="#1E3041" opacity="1.000000" stroke="none" 
	d="
M110.030334,217.360687 
	C111.816742,213.308197 115.012749,212.501984 118.715218,213.021484 
	C122.236336,213.515533 124.381996,212.334656 124.904892,208.242172 
	C128.417542,213.955261 131.767441,220.036331 135.162018,226.487793 
	C135.909256,229.566452 136.611832,232.274750 137.499161,235.695282 
	C134.896698,237.268768 131.819489,239.129288 128.367737,240.995041 
	C122.018005,233.238632 116.042831,225.477005 110.030334,217.360687 
z"/>
<path fill="#2C4957" opacity="1.000000" stroke="none" 
	d="
M205.393402,280.545349 
	C207.500351,282.281769 209.302811,283.848663 211.414001,285.572083 
	C212.599396,286.573944 213.476059,287.419342 214.267990,288.565918 
	C209.441299,286.065582 203.985229,284.011688 200.106110,280.306763 
	C192.037674,272.600586 184.581512,264.210449 177.322678,255.717712 
	C173.713043,251.494492 171.095169,246.423584 167.974380,241.380951 
	C170.309586,239.685104 172.699051,238.344498 175.454407,237.006104 
	C176.367935,238.132111 176.915588,239.255875 177.145645,240.714920 
	C174.331650,240.868103 173.790070,241.983109 175.025955,243.989761 
	C176.255814,245.986664 175.796463,250.502487 180.394104,247.818298 
	C183.178467,252.451218 185.900574,257.123383 188.782883,261.694580 
	C189.719467,263.179993 191.074814,264.401306 192.636444,266.227600 
	C194.818024,268.891388 196.601761,271.071014 198.385498,273.250610 
	C200.619980,275.625671 202.854446,278.000763 205.393402,280.545349 
z"/>
<path fill="#324E5D" opacity="1.000000" stroke="none" 
	d="
M151.985107,202.381836 
	C156.932251,202.530762 157.711868,204.167267 156.218414,211.803711 
	C154.610275,208.980957 153.301956,205.877502 151.985107,202.381836 
z"/>
<path fill="#2C4957" opacity="1.000000" stroke="none" 
	d="
M214.222778,289.210693 
	C214.719269,289.031128 215.426804,289.157135 216.357117,289.619812 
	C215.864532,289.809753 215.149170,289.662994 214.222778,289.210693 
z"/>
<path fill="#2C4957" opacity="1.000000" stroke="none" 
	d="
M220.106171,291.928101 
	C220.057190,291.930939 219.950394,291.983887 219.979752,291.939178 
	C220.115906,291.841553 220.048355,291.978180 220.106171,291.928101 
z"/>
<path fill="#22364D" opacity="1.000000" stroke="none" 
	d="
M320.548615,254.997253 
	C321.741211,255.057846 322.481201,255.119949 323.330383,255.191208 
	C322.819458,256.091187 322.446655,256.747925 322.041199,257.702942 
	C298.874756,258.001190 275.740906,258.023926 252.607315,257.956482 
	C250.823242,257.951263 249.041016,257.311188 247.257950,256.966217 
	C247.363892,256.310394 247.469833,255.654572 247.575790,254.998764 
	C271.749207,254.998764 295.922607,254.998764 320.548615,254.997253 
z"/>
<path fill="#2B3E4E" opacity="1.000000" stroke="none" 
	d="
M252.009583,300.651520 
	C250.778931,300.532562 249.541565,300.083710 248.132019,299.337677 
	C249.035492,299.027130 250.111145,299.013794 251.589111,299.000824 
	C251.995270,299.441345 251.999084,299.881500 252.009583,300.651520 
z"/>
<path fill="#2B3E4E" opacity="1.000000" stroke="none" 
	d="
M213.002655,296.384155 
	C215.516876,296.881378 218.030197,297.750549 220.543518,298.619720 
	C220.498138,298.941650 220.452744,299.263611 220.407349,299.585571 
	C218.212708,299.388519 216.018082,299.191467 213.412323,298.991089 
	C213.001404,298.243896 213.001587,297.500000 213.002655,296.384155 
z"/>
<path fill="#2B3E4E" opacity="1.000000" stroke="none" 
	d="
M204.207520,298.809570 
	C202.740265,298.562195 201.518845,298.094086 200.136688,297.322876 
	C201.468399,297.542786 202.960861,298.065826 204.207520,298.809570 
z"/>
<path fill="#C9DBE9" opacity="1.000000" stroke="none" 
	d="
M184.985504,232.639801 
	C185.322144,234.807159 186.022369,236.614624 185.849533,238.334351 
	C185.733963,239.484131 184.377228,240.509171 183.575897,241.590027 
	C182.723557,240.652191 181.339172,239.823578 181.120010,238.755814 
	C180.496948,235.720169 180.069092,232.580872 180.136169,229.494797 
	C180.168320,228.015701 181.491440,226.564651 182.611816,225.050308 
	C183.655060,227.414001 184.316376,229.828293 184.985504,232.639801 
z"/>
<path fill="#324E5D" opacity="1.000000" stroke="none" 
	d="
M180.370758,247.464386 
	C175.796463,250.502487 176.255814,245.986664 175.025955,243.989761 
	C173.790070,241.983109 174.331650,240.868103 177.235535,241.082382 
	C178.544479,243.113220 179.445938,245.111847 180.370758,247.464386 
z"/>
<path fill="#E5F1F4" opacity="1.000000" stroke="none" 
	d="
M198.723022,273.085632 
	C196.601761,271.071014 194.818024,268.891388 192.931549,266.387695 
	C193.197433,265.587158 193.566025,265.110718 193.966461,264.317322 
	C196.302032,266.623993 200.220810,268.331177 198.723022,273.085632 
z"/>
<path fill="#2C4957" opacity="1.000000" stroke="none" 
	d="
M174.300308,232.656754 
	C174.107513,232.673691 173.900818,232.445892 173.863632,232.105133 
	C174.033127,231.992203 174.286423,232.412003 174.300308,232.656754 
z"/>
<path fill="#2B3D53" opacity="1.000000" stroke="none" 
	d="
M358.021362,297.121765 
	C357.741089,297.654785 357.393707,298.105865 357.046356,298.556976 
	C356.844147,298.378052 356.448578,298.071259 356.469330,298.039795 
	C356.701599,297.688599 356.998169,297.379883 357.533142,296.983582 
	C357.788910,296.907440 357.954254,297.039856 358.021362,297.121765 
z"/>
<path fill="#CEDEE9" opacity="1.000000" stroke="none" 
	d="
M193.609970,242.815643 
	C193.229416,242.469330 192.942932,241.845551 192.890732,241.097168 
	C193.318024,241.494431 193.511047,242.016296 193.609970,242.815643 
z"/>
</svg>